<svg width="50" height="50" viewBox="0 0 50 50" fill="none" xmlns="http://www.w3.org/2000/svg">
<path d="M18.4664 19.2566C18.4145 19.2047 18.3733 19.1431 18.3453 19.0753C18.3172 19.0075 18.3027 18.9348 18.3027 18.8615C18.3027 18.7881 18.3172 18.7154 18.3453 18.6477C18.3733 18.5799 18.4145 18.5183 18.4664 18.4664C18.5183 18.4145 18.5799 18.3733 18.6477 18.3453C18.7154 18.3172 18.7881 18.3027 18.8615 18.3027C18.9348 18.3027 19.0075 18.3172 19.0753 18.3453C19.1431 18.3733 19.2047 18.4145 19.2566 18.4664L24.9999 24.2108L30.7432 18.4664C30.7951 18.4145 30.8567 18.3733 30.9244 18.3453C30.9922 18.3172 31.0649 18.3027 31.1383 18.3027C31.2116 18.3027 31.2843 18.3172 31.3521 18.3453C31.4199 18.3733 31.4815 18.4145 31.5334 18.4664C31.5852 18.5183 31.6264 18.5799 31.6545 18.6477C31.6825 18.7154 31.697 18.7881 31.697 18.8615C31.697 18.9348 31.6825 19.0075 31.6545 19.0753C31.6264 19.1431 31.5852 19.2047 31.5334 19.2566L25.7889 24.9999L31.5334 30.7432C31.5852 30.7951 31.6264 30.8567 31.6545 30.9244C31.6825 30.9922 31.697 31.0649 31.697 31.1383C31.697 31.2116 31.6825 31.2843 31.6545 31.3521C31.6264 31.4199 31.5852 31.4815 31.5334 31.5334C31.4815 31.5852 31.4199 31.6264 31.3521 31.6545C31.2843 31.6825 31.2116 31.697 31.1383 31.697C31.0649 31.697 30.9922 31.6825 30.9244 31.6545C30.8567 31.6264 30.7951 31.5852 30.7432 31.5334L24.9999 25.7889L19.2566 31.5334C19.2047 31.5852 19.1431 31.6264 19.0753 31.6545C19.0075 31.6825 18.9348 31.697 18.8615 31.697C18.7881 31.697 18.7154 31.6825 18.6477 31.6545C18.5799 31.6264 18.5183 31.5852 18.4664 31.5334C18.4145 31.4815 18.3733 31.4199 18.3453 31.3521C18.3172 31.2843 18.3027 31.2116 18.3027 31.1383C18.3027 31.0649 18.3172 30.9922 18.3453 30.9244C18.3733 30.8567 18.4145 30.7951 18.4664 30.7432L24.2108 24.9999L18.4664 19.2566Z" fill="white"/>
<circle cx="25" cy="25" r="24.1071" stroke="white" stroke-opacity="0.7" stroke-width="1.78571"/>
</svg>
